<svg width="680" height="580" viewBox="0 0 680 580" xmlns="http://www.w3.org/2000/svg">
  <defs>
    <style>.sans{font-family:Arial,Helvetica,sans-serif;}.serif{font-family:Georgia,'Times New Roman',serif;}</style>
  </defs>

  <!-- Background -->
  <rect width="680" height="580" rx="20" fill="#eef0f2"/>

  <!-- Eyebrow -->
  <circle cx="44" cy="48" r="4" fill="#2563eb"/>
  <text x="56" y="53" class="sans" font-size="11" font-weight="500" fill="#2563eb" letter-spacing="1.5">OPENTECHNOLOGYAPP — SUBSCRIPTION PLANS</text>

  <!-- Headline -->
  <text x="44" y="96" class="serif" font-size="36" font-weight="700" fill="#111827">Pick the plan that</text>
  <text x="44" y="138" class="serif" font-size="36" font-weight="700" fill="#111827">fits your <tspan font-style="italic" fill="#2563eb">team.</tspan></text>
  <text x="44" y="168" class="sans" font-size="14" fill="#6b7280">Every org is fully isolated — your own database, your own URL, your own rules.</text>

  <!-- STARTER CARD -->
  <rect x="44" y="188" width="182" height="352" rx="14" fill="#ffffff" stroke="#e5e7eb" stroke-width="1"/>
  <rect x="44" y="188" width="182" height="56" rx="14" fill="#f9fafb"/>
  <rect x="44" y="230" width="182" height="14" fill="#f9fafb"/>
  <text x="135" y="213" text-anchor="middle" class="sans" font-size="11" font-weight="500" fill="#6b7280" letter-spacing="1">STARTER</text>
  <text x="135" y="234" text-anchor="middle" class="serif" font-size="26" font-weight="700" fill="#111827">$20</text>
  <text x="135" y="252" text-anchor="middle" class="sans" font-size="11" fill="#9ca3af">per month</text>

  <!-- Starter rows -->
  <text x="64" y="278" class="sans" font-size="12" fill="#6b7280">Projects</text>
  <text x="210" y="278" text-anchor="end" class="sans" font-size="12" font-weight="500" fill="#111827">5</text>
  <line x1="64" y1="286" x2="210" y2="286" stroke="#f3f4f6" stroke-width="1"/>

  <text x="64" y="304" class="sans" font-size="12" fill="#6b7280">Users</text>
  <text x="210" y="304" text-anchor="end" class="sans" font-size="12" font-weight="500" fill="#111827">10</text>
  <line x1="64" y1="312" x2="210" y2="312" stroke="#f3f4f6" stroke-width="1"/>

  <text x="64" y="330" class="sans" font-size="12" fill="#6b7280">Total items</text>
  <text x="210" y="330" text-anchor="end" class="sans" font-size="12" font-weight="500" fill="#111827">500</text>
  <line x1="64" y1="338" x2="210" y2="338" stroke="#f3f4f6" stroke-width="1"/>

  <text x="64" y="356" class="sans" font-size="12" fill="#6b7280">Automations</text>
  <text x="210" y="356" text-anchor="end" class="sans" font-size="12" font-weight="500" fill="#111827">5 / project</text>
  <line x1="64" y1="364" x2="210" y2="364" stroke="#f3f4f6" stroke-width="1"/>

  <text x="64" y="382" class="sans" font-size="12" fill="#6b7280">Auto runs/day</text>
  <text x="210" y="382" text-anchor="end" class="sans" font-size="12" font-weight="500" fill="#111827">200</text>
  <line x1="64" y1="390" x2="210" y2="390" stroke="#f3f4f6" stroke-width="1"/>

  <text x="64" y="408" class="sans" font-size="12" fill="#6b7280">Dashboards</text>
  <text x="210" y="408" text-anchor="end" class="sans" font-size="12" font-weight="500" fill="#111827">3 / project</text>
  <line x1="64" y1="416" x2="210" y2="416" stroke="#f3f4f6" stroke-width="1"/>

  <text x="64" y="434" class="sans" font-size="12" fill="#6b7280">Custom fields</text>
  <text x="210" y="434" text-anchor="end" class="sans" font-size="12" font-weight="500" fill="#111827">10</text>
  <line x1="64" y1="442" x2="210" y2="442" stroke="#f3f4f6" stroke-width="1"/>

  <text x="64" y="460" class="sans" font-size="12" fill="#6b7280">API keys</text>
  <text x="210" y="460" text-anchor="end" class="sans" font-size="12" font-weight="500" fill="#111827">3</text>

  <rect x="64" y="476" width="146" height="34" rx="8" fill="#eff6ff" stroke="#bfdbfe" stroke-width="1"/>
  <text x="137" y="498" text-anchor="middle" class="sans" font-size="12" font-weight="500" fill="#2563eb">Get started</text>

  <!-- PRO CARD -->
  <rect x="249" y="188" width="182" height="352" rx="14" fill="#2563eb"/>
  <!-- Pro badge -->
  <rect x="299" y="178" width="82" height="22" rx="11" fill="#111827"/>
  <text x="340" y="193" text-anchor="middle" class="sans" font-size="10" font-weight="500" fill="#ffffff" letter-spacing="1">MOST POPULAR</text>

  <text x="340" y="213" text-anchor="middle" class="sans" font-size="11" font-weight="500" fill="#93c5fd" letter-spacing="1">PRO</text>
  <text x="340" y="238" text-anchor="middle" class="serif" font-size="26" font-weight="700" fill="#ffffff">$120</text>
  <text x="340" y="256" text-anchor="middle" class="sans" font-size="11" fill="#93c5fd">per month</text>

  <!-- Divider -->
  <line x1="269" y1="268" x2="411" y2="268" stroke="rgba(255,255,255,0.15)" stroke-width="1"/>

  <!-- Pro rows -->
  <text x="269" y="290" class="sans" font-size="12" fill="#bfdbfe">Projects</text>
  <text x="415" y="290" text-anchor="end" class="sans" font-size="12" font-weight="500" fill="#ffffff">25</text>
  <line x1="269" y1="298" x2="415" y2="298" stroke="rgba(255,255,255,0.1)" stroke-width="1"/>

  <text x="269" y="316" class="sans" font-size="12" fill="#bfdbfe">Users</text>
  <text x="415" y="316" text-anchor="end" class="sans" font-size="12" font-weight="500" fill="#ffffff">50</text>
  <line x1="269" y1="324" x2="415" y2="324" stroke="rgba(255,255,255,0.1)" stroke-width="1"/>

  <text x="269" y="342" class="sans" font-size="12" fill="#bfdbfe">Total items</text>
  <text x="415" y="342" text-anchor="end" class="sans" font-size="12" font-weight="500" fill="#ffffff">10,000</text>
  <line x1="269" y1="350" x2="415" y2="350" stroke="rgba(255,255,255,0.1)" stroke-width="1"/>

  <text x="269" y="368" class="sans" font-size="12" fill="#bfdbfe">Automations</text>
  <text x="415" y="368" text-anchor="end" class="sans" font-size="12" font-weight="500" fill="#ffffff">25 / project</text>
  <line x1="269" y1="376" x2="415" y2="376" stroke="rgba(255,255,255,0.1)" stroke-width="1"/>

  <text x="269" y="394" class="sans" font-size="12" fill="#bfdbfe">Auto runs/day</text>
  <text x="415" y="394" text-anchor="end" class="sans" font-size="12" font-weight="500" fill="#ffffff">5,000</text>
  <line x1="269" y1="402" x2="415" y2="402" stroke="rgba(255,255,255,0.1)" stroke-width="1"/>

  <text x="269" y="420" class="sans" font-size="12" fill="#bfdbfe">Dashboards</text>
  <text x="415" y="420" text-anchor="end" class="sans" font-size="12" font-weight="500" fill="#ffffff">10 / project</text>
  <line x1="269" y1="428" x2="415" y2="428" stroke="rgba(255,255,255,0.1)" stroke-width="1"/>

  <text x="269" y="446" class="sans" font-size="12" fill="#bfdbfe">Custom fields</text>
  <text x="415" y="446" text-anchor="end" class="sans" font-size="12" font-weight="500" fill="#ffffff">30</text>
  <line x1="269" y1="454" x2="415" y2="454" stroke="rgba(255,255,255,0.1)" stroke-width="1"/>

  <text x="269" y="472" class="sans" font-size="12" fill="#bfdbfe">API keys</text>
  <text x="415" y="472" text-anchor="end" class="sans" font-size="12" font-weight="500" fill="#ffffff">15</text>

  <rect x="269" y="488" width="146" height="34" rx="8" fill="#ffffff"/>
  <text x="342" y="510" text-anchor="middle" class="sans" font-size="12" font-weight="500" fill="#2563eb">Upgrade to Pro</text>

  <!-- STANDALONE CARD -->
  <rect x="454" y="188" width="182" height="352" rx="14" fill="#ffffff" stroke="#e5e7eb" stroke-width="1"/>
  <rect x="454" y="188" width="182" height="56" rx="14" fill="#f9fafb"/>
  <rect x="454" y="230" width="182" height="14" fill="#f9fafb"/>
  <text x="545" y="213" text-anchor="middle" class="sans" font-size="11" font-weight="500" fill="#6b7280" letter-spacing="1">STANDALONE</text>
  <text x="545" y="234" text-anchor="middle" class="serif" font-size="26" font-weight="700" fill="#111827">Free</text>
  <text x="545" y="252" text-anchor="middle" class="sans" font-size="11" fill="#9ca3af">self-hosted</text>

  <!-- Standalone features -->
  <rect x="474" y="268" width="18" height="18" rx="4" fill="#2563eb"/>
  <text x="483" y="281" text-anchor="middle" class="sans" font-size="10" fill="white">✓</text>
  <text x="500" y="281" class="sans" font-size="12" fill="#374151">Unlimited projects</text>

  <rect x="474" y="296" width="18" height="18" rx="4" fill="#2563eb"/>
  <text x="483" y="309" text-anchor="middle" class="sans" font-size="10" fill="white">✓</text>
  <text x="500" y="309" class="sans" font-size="12" fill="#374151">Unlimited users</text>

  <rect x="474" y="324" width="18" height="18" rx="4" fill="#2563eb"/>
  <text x="483" y="337" text-anchor="middle" class="sans" font-size="10" fill="white">✓</text>
  <text x="500" y="337" class="sans" font-size="12" fill="#374151">Unlimited items</text>

  <rect x="474" y="352" width="18" height="18" rx="4" fill="#2563eb"/>
  <text x="483" y="365" text-anchor="middle" class="sans" font-size="10" fill="white">✓</text>
  <text x="500" y="365" class="sans" font-size="12" fill="#374151">No feature gates</text>

  <rect x="474" y="380" width="18" height="18" rx="4" fill="#2563eb"/>
  <text x="483" y="393" text-anchor="middle" class="sans" font-size="10" fill="white">✓</text>
  <text x="500" y="393" class="sans" font-size="12" fill="#374151">Full source code</text>

  <rect x="474" y="408" width="18" height="18" rx="4" fill="#2563eb"/>
  <text x="483" y="421" text-anchor="middle" class="sans" font-size="10" fill="white">✓</text>
  <text x="500" y="421" class="sans" font-size="12" fill="#374151">Vercel + Supabase</text>

  <rect x="474" y="436" width="18" height="18" rx="4" fill="#2563eb"/>
  <text x="483" y="449" text-anchor="middle" class="sans" font-size="10" fill="white">✓</text>
  <text x="500" y="449" class="sans" font-size="12" fill="#374151">Own your data</text>

  <text x="545" y="472" text-anchor="middle" class="sans" font-size="11" fill="#9ca3af">Deploy in &lt;10 minutes</text>

  <rect x="474" y="476" width="146" height="34" rx="8" fill="#f9fafb" stroke="#e5e7eb" stroke-width="1"/>
  <text x="547" y="498" text-anchor="middle" class="sans" font-size="12" font-weight="500" fill="#374151">Self-host free</text>

  <!-- Footer note -->
  <text x="340" y="556" text-anchor="middle" class="sans" font-size="12" fill="#9ca3af">Every paid org is live at yourslug.opentechnologyapp.app within ~2 minutes of subscribing.</text>
</svg>
